<svg width="241" height="40" viewBox="0 0 241 40" fill="none" xmlns="http://www.w3.org/2000/svg">
<path d="M8.94262 0.341105C9.13962 0.236098 10.2171 0.183594 12.1752 0.183594H16.2436C20.8761 0.201095 23.2192 0.2711 23.2729 0.393609C23.3445 0.481116 23.3803 2.38583 23.3803 6.10485C23.3803 9.82387 23.3177 11.6936 23.1923 11.8161C23.0848 11.9386 22.5983 11.9999 21.7387 11.9999C20.9298 11.9999 20.4194 11.9561 20.2045 11.8686C20.0433 11.7811 19.9627 11.3261 19.9627 10.5006V9.23758C18.4195 9.25508 16.1152 9.26383 13.0528 9.26383C9.9903 9.26383 7.69793 9.27258 6.16969 9.29008L5.22648 10.4744C4.54295 11.2998 4.12208 11.7461 3.9609 11.8161C3.74599 11.9211 3.24155 11.9736 2.45355 11.9736H1.8327C0.611895 11.9561 0 11.8774 0 11.7374C0 11.5624 1.43273 9.64886 4.2952 5.99984C7.16066 2.35083 8.7098 0.463614 8.94262 0.341105ZM19.8523 6.37029V3.02754H11.0708C10.2261 4.08054 9.35453 5.19478 8.45907 6.37029H19.8523Z" fill="white"/>
<path d="M26.3174 0.131259C26.4607 0.0437532 30.341 0 37.9524 0C45.5638 0 49.3903 0.0437532 49.4799 0.131259C49.5694 0.218766 49.6142 0.650464 49.6142 1.42052C49.6142 2.19058 49.5694 2.64852 49.4799 2.73603C49.3724 2.84104 47.7099 2.89354 44.4982 2.89354H39.6776V7.13177C39.6776 9.97572 39.6149 11.4575 39.4896 11.58C39.3821 11.7025 38.8419 11.7638 37.8748 11.7638C36.9077 11.7638 36.3764 11.72 36.2868 11.6325C36.1973 11.545 36.1525 10.0632 36.1525 7.18427V2.89646H31.2783C28.0278 2.89646 26.3503 2.84396 26.2398 2.73895C26.1503 2.65144 26.1055 2.21391 26.1055 1.42344C26.1055 0.632962 26.1771 0.221683 26.3204 0.134176L26.3174 0.131259Z" fill="white"/>
<path d="M52.4169 0.497987C52.4706 0.392979 52.5841 0.325891 52.7542 0.299639C52.9243 0.273387 53.3691 0.261719 54.0884 0.261719C55.1481 0.261719 55.7212 0.305473 55.8137 0.392979C55.9032 0.480485 55.948 1.94476 55.948 4.78871V9.02694H65.807C72.3438 9.02694 75.6659 9.07944 75.7734 9.18445C75.8629 9.27196 75.9077 9.70365 75.9077 10.4737C75.9077 11.2437 75.8629 11.7017 75.7734 11.7892C75.6659 11.8942 71.4006 11.9467 62.9773 11.9467C56.154 11.9467 52.6706 11.9029 52.5274 11.8154C52.402 11.7279 52.3304 9.85825 52.3125 6.20923V4.41827C52.3125 1.97976 52.3483 0.672999 52.4199 0.49507L52.4169 0.497987Z" fill="white"/>
<path d="M87.677 0.341105C87.874 0.236098 88.9515 0.183594 90.9096 0.183594H94.9779C99.6104 0.201095 101.954 0.2711 102.007 0.393609C102.079 0.481116 102.115 2.38583 102.115 6.10485C102.115 9.82387 102.052 11.6936 101.927 11.8161C101.819 11.9386 101.333 11.9999 100.473 11.9999C99.6642 11.9999 99.1537 11.9561 98.9388 11.8686C98.7777 11.7811 98.6971 11.3261 98.6971 10.5006V9.23758C97.1539 9.25508 94.8496 9.26383 91.7871 9.26383C88.7247 9.26383 86.4323 9.27258 84.9041 9.29008L83.9608 10.4744C83.2773 11.2998 82.8564 11.7461 82.6953 11.8161C82.4803 11.9211 81.9759 11.9736 81.1879 11.9736H80.5671C79.3463 11.9561 78.7344 11.8774 78.7344 11.7374C78.7344 11.5624 80.1671 9.64886 83.0296 5.99984C85.895 2.35083 87.4412 0.463614 87.677 0.341105ZM98.5866 6.37029V3.02754H89.8052C88.9605 4.08054 88.0889 5.19478 87.1934 6.37029H98.5866Z" fill="white"/>
<path d="M104.996 0.445483C105.122 0.322974 108.838 0.261719 116.148 0.261719C123.458 0.261719 127.129 0.305473 127.218 0.392979C127.308 0.480485 127.353 0.912183 127.353 1.68224C127.353 2.4523 127.308 2.91025 127.218 2.99775C127.111 3.10276 123.968 3.15526 117.792 3.15526H108.474V4.86747L118.386 4.89372C124.995 4.91122 128.344 4.98123 128.433 5.10374C128.523 5.24375 128.568 6.25299 128.568 8.13146C128.568 10.4649 128.514 11.6842 128.406 11.7892C128.317 11.8767 124.428 11.9204 116.742 11.9204C109.056 11.9204 105.169 11.8767 105.08 11.7892C104.972 11.6842 104.919 11.2729 104.919 10.5524C104.919 9.77949 104.981 9.33321 105.107 9.2107C105.232 9.08819 108.581 9.02694 115.154 9.02694H125.013V7.18347H115.019C110.118 7.18347 107.223 7.17472 106.333 7.15722C105.444 7.13972 104.972 7.07846 104.919 6.97346C104.847 6.85095 104.811 5.7542 104.811 3.68322C104.811 1.61224 104.874 0.567992 104.999 0.445483H104.996Z" fill="white"/>
<path d="M145.455 1.81734C146.192 0.904361 146.631 0.388073 146.774 0.265564C146.917 0.143055 147.311 0.07305 147.959 0.0555488C148.607 0.0380475 150.687 0.0292969 154.209 0.0292969H158.263C159.134 0.0292969 159.83 0.0409644 160.349 0.0701331C160.869 0.096385 161.176 0.122637 161.266 0.148889C161.355 0.175141 161.418 0.215977 161.454 0.268481C161.543 0.443494 161.588 2.33071 161.588 5.92722C161.588 9.52373 161.543 11.411 161.454 11.586C161.364 11.7435 160.824 11.8222 159.839 11.8222C158.905 11.8222 158.349 11.7785 158.167 11.691C158.042 11.621 157.97 11.1659 157.952 10.323L157.899 9.0337H144.35L143.38 10.2442C142.786 10.9997 142.383 11.4635 142.168 11.6385C141.989 11.761 141.261 11.8222 139.987 11.8222H138.909C138.676 11.8222 138.491 11.8106 138.357 11.7814C138.222 11.7522 138.142 11.7289 138.115 11.7026C138.088 11.6764 138.076 11.6356 138.076 11.583C138.076 11.408 139.064 10.075 141.04 7.58109C142.962 5.16008 143.995 3.82707 144.138 3.57914C144.282 3.31662 144.721 2.72741 145.458 1.81443L145.455 1.81734ZM157.925 6.16057V2.92284H149.01L147.825 4.44837C147.016 5.46636 146.613 6.00015 146.613 6.05265C146.613 6.12265 148.49 6.15766 152.242 6.15766H157.925V6.16057Z" fill="white"/>
<path d="M164.418 0.288371C164.525 0.183363 165.092 0.130859 166.116 0.130859C166.925 0.130859 167.417 0.174613 167.596 0.262119C167.704 0.314623 167.767 0.539222 167.785 0.933001C167.802 1.32678 167.811 2.57812 167.811 4.6841V9.00108H184.162V4.71035C184.162 1.8489 184.207 0.375877 184.297 0.288371C184.404 0.183363 184.971 0.130859 185.995 0.130859C186.804 0.130859 187.297 0.174613 187.476 0.262119C187.583 0.314623 187.646 0.574225 187.664 1.03801C187.682 1.50179 187.691 2.9719 187.691 5.44832C187.691 7.92475 187.679 9.45028 187.652 9.92281C187.625 10.3953 187.547 10.7483 187.422 10.9758C187.279 11.2383 187.037 11.46 186.694 11.635C186.461 11.7575 185.876 11.8275 184.941 11.845C184.007 11.8625 181.016 11.8712 175.972 11.8712H165.737L165.227 11.635C164.85 11.4425 164.615 11.25 164.525 11.0574C164.364 10.6899 164.283 9.24902 164.283 6.7405V5.47749C164.283 2.1085 164.328 0.378794 164.418 0.291288V0.288371Z" fill="white"/>
<path d="M190.516 0.471735C190.57 0.366727 191.11 0.305473 192.134 0.287971C193.158 0.27047 196.507 0.261719 202.181 0.261719C207.855 0.261719 211.201 0.27047 212.216 0.287971C213.231 0.305473 213.765 0.366727 213.819 0.471735C213.891 0.646747 213.926 1.04928 213.926 1.68224V2.20728C213.926 2.64481 213.756 2.91025 213.416 2.99775C213.076 3.08526 212.097 3.12901 210.479 3.12901H203.933V7.36723C203.933 10.1937 203.888 11.6492 203.799 11.7367C203.709 11.8242 203.169 11.8679 202.181 11.8679C201.193 11.8679 200.629 11.8242 200.539 11.7367C200.45 11.6492 200.405 10.1937 200.405 7.36723V3.13193H195.665C192.504 3.13193 190.845 3.07067 190.68 2.94816C190.555 2.86066 190.477 2.75857 190.451 2.64481C190.424 2.53105 190.412 2.23645 190.412 1.76391C190.412 1.07845 190.448 0.649664 190.519 0.474652L190.516 0.471735Z" fill="white"/>
<path d="M217.643 0.419231C217.876 0.314223 221.458 0.261719 228.392 0.261719H230.708C234.857 0.261719 237.317 0.287971 238.09 0.340475C238.863 0.392979 239.373 0.55049 239.624 0.813009C239.66 0.848012 239.687 0.874264 239.704 0.891765L240 1.20679V10.9491C239.606 11.3342 239.316 11.6258 239.137 11.8184C236.767 11.8359 233.221 11.8446 228.496 11.8446C223.771 11.8446 220.228 11.8534 217.855 11.8709L217.479 11.6346C217.246 11.4596 217.041 11.2321 216.858 10.9491C216.733 10.7216 216.67 9.79116 216.67 8.15771V5.94671L216.724 1.36722L216.993 0.973438C217.208 0.693417 217.423 0.509654 217.64 0.419231H217.643ZM236.526 9.00069V3.13193H220.175V9.00069H236.526Z" fill="white"/>
<path d="M228.196 39.415V25.1172H230.323V26.4814H230.334C230.649 26.0804 231.186 25.7008 231.945 25.3428C232.712 24.9847 233.686 24.8057 234.867 24.8057C236.672 24.8057 238.083 25.2568 239.1 26.1592C240.124 27.0544 240.636 28.3148 240.636 29.9404V30.0801C240.636 31.7487 240.106 33.0413 239.046 33.958C237.993 34.8675 236.607 35.3223 234.889 35.3223C233.764 35.3223 232.808 35.1504 232.021 34.8066C231.24 34.4557 230.699 34.1299 230.398 33.8291L230.377 39.415H228.196ZM230.388 32.0137C230.61 32.3574 231.068 32.7227 231.763 33.1094C232.465 33.4961 233.353 33.6895 234.427 33.6895C235.816 33.6895 236.829 33.3743 237.467 32.7441C238.111 32.1139 238.434 31.2152 238.434 30.0479V29.9404C238.434 28.8734 238.111 28.0283 237.467 27.4053C236.829 26.7751 235.812 26.46 234.416 26.46C233.435 26.46 232.586 26.6283 231.87 26.9648C231.154 27.2943 230.66 27.6631 230.388 28.0713V32.0137Z" fill="#5F5F5F"/>
<path d="M213.415 30.0693V29.9404C213.415 28.3792 214.009 27.126 215.198 26.1807C216.387 25.2354 217.966 24.7627 219.936 24.7627C221.883 24.7627 223.384 25.2139 224.437 26.1162C225.496 27.0186 226.026 28.2253 226.026 29.7363V30.4238H214.607V29.0596H223.899V29.0166C223.899 28.3506 223.595 27.7562 222.986 27.2334C222.378 26.7106 221.364 26.4492 219.946 26.4492C218.507 26.4492 217.429 26.7572 216.713 27.373C215.997 27.9889 215.639 28.7946 215.639 29.79V30.1338C215.639 31.2223 216.004 32.0853 216.734 32.7227C217.472 33.3529 218.532 33.668 219.914 33.668C221.167 33.668 222.134 33.5176 222.814 33.2168C223.495 32.916 223.985 32.5902 224.286 32.2393L225.897 33.0449C225.496 33.668 224.823 34.2051 223.878 34.6562C222.933 35.1003 221.615 35.3223 219.925 35.3223C217.927 35.3223 216.34 34.8532 215.166 33.915C213.999 32.9769 213.415 31.695 213.415 30.0693Z" fill="#5F5F5F"/>
<path d="M203.489 26.8252L203.274 30.7461C203.196 32.3359 202.924 33.4925 202.458 34.2158C201.993 34.9391 201.255 35.3008 200.245 35.3008C200.023 35.3008 199.812 35.29 199.611 35.2686C199.411 35.2542 199.25 35.2256 199.128 35.1826V33.3135C199.243 33.3493 199.361 33.3779 199.482 33.3994C199.604 33.4137 199.769 33.4209 199.977 33.4209C200.442 33.4209 200.775 33.2132 200.976 32.7979C201.183 32.3825 201.312 31.627 201.362 30.5312L201.631 25.1172H210.794V35H208.592V26.8252H203.489Z" fill="#5F5F5F"/>
<path d="M185.915 35V25.1172H188.117V31.5303C188.117 31.7809 188.114 31.9564 188.106 32.0566C188.099 32.1497 188.092 32.3288 188.085 32.5938H188.149C188.307 32.3861 188.425 32.2357 188.504 32.1426C188.59 32.0423 188.755 31.8633 188.998 31.6055L194.659 25.1172H196.904V35H194.702V28.5547C194.702 28.3398 194.702 28.1787 194.702 28.0713C194.709 27.9639 194.716 27.7777 194.724 27.5127H194.67C194.505 27.7275 194.383 27.8779 194.305 27.9639C194.226 28.0498 194.065 28.2217 193.821 28.4795L188.16 35H185.915Z" fill="#5F5F5F"/>
<path d="M181.801 37.8252V35H171.982V37.8252H169.888V33.292H183.896V37.8252H181.801ZM174.335 26.8252L174.142 29.833C174.099 30.5921 174.006 31.3118 173.862 31.9922C173.726 32.6654 173.562 33.1738 173.368 33.5176H171.338C171.567 33.1738 171.76 32.6725 171.918 32.0137C172.083 31.3477 172.19 30.6029 172.24 29.7793L172.509 25.1172H181.951V35H179.749V26.8252H174.335Z" fill="#5F5F5F"/>
<path d="M150.53 35V25.1172H152.732V31.5303C152.732 31.7809 152.729 31.9564 152.722 32.0566C152.715 32.1497 152.707 32.3288 152.7 32.5938H152.765C152.922 32.3861 153.04 32.2357 153.119 32.1426C153.205 32.0423 153.37 31.8633 153.613 31.6055L159.274 25.1172H161.52V35H159.317V28.5547C159.317 28.3398 159.317 28.1787 159.317 28.0713C159.325 27.9639 159.332 27.7777 159.339 27.5127H159.285C159.12 27.7275 158.999 27.8779 158.92 27.9639C158.841 28.0498 158.68 28.2217 158.437 28.4795L152.775 35H150.53ZM156.052 22.2275C156.582 22.2275 157.029 22.0771 157.395 21.7764C157.76 21.4756 158.061 21.0173 158.297 20.4014L159.908 21.0029C159.514 21.9053 159.002 22.5892 158.372 23.0547C157.742 23.513 156.968 23.7422 156.052 23.7422C155.135 23.7422 154.358 23.513 153.721 23.0547C153.09 22.5964 152.582 21.9124 152.195 21.0029L153.817 20.4014C154.068 21.0101 154.369 21.4684 154.72 21.7764C155.078 22.0771 155.522 22.2275 156.052 22.2275Z" fill="#5F5F5F"/>
<path d="M134.943 25.1172V28.415H139.229C140.454 28.415 141.389 28.7122 142.033 29.3066C142.685 29.8939 143.011 30.6995 143.011 31.7236C143.011 32.7406 142.685 33.5426 142.033 34.1299C141.389 34.71 140.454 35 139.229 35H132.752V25.1172H134.943ZM138.8 29.9189H134.943V33.4961H138.8C139.53 33.4961 140.049 33.3314 140.357 33.002C140.665 32.6654 140.819 32.2249 140.819 31.6807C140.819 31.1579 140.665 30.7354 140.357 30.4131C140.049 30.0837 139.53 29.9189 138.8 29.9189ZM144.729 35V25.1172H146.942V35H144.729Z" fill="#5F5F5F"/>
<path d="M118.304 25.1172H120.495V29.167H127.005V25.1172H129.207V35H127.005V30.832H120.495V35H118.304V25.1172Z" fill="#5F5F5F"/>
<path d="M107.755 25.1172V28.415H112.041C113.266 28.415 114.2 28.7122 114.845 29.3066C115.496 29.8939 115.822 30.6995 115.822 31.7236C115.822 32.7406 115.496 33.5426 114.845 34.1299C114.2 34.71 113.266 35 112.041 35H105.563V25.1172H107.755ZM111.611 29.9189H107.755V33.4961H111.611C112.342 33.4961 112.861 33.3314 113.169 33.002C113.477 32.6654 113.631 32.2249 113.631 31.6807C113.631 31.1579 113.477 30.7354 113.169 30.4131C112.861 30.0837 112.342 29.9189 111.611 29.9189Z" fill="#5F5F5F"/>
<path d="M94.6709 26.8252L94.4561 30.7461C94.3773 32.3359 94.1051 33.4925 93.6396 34.2158C93.1742 34.9391 92.4365 35.3008 91.4268 35.3008C91.2048 35.3008 90.9935 35.29 90.793 35.2686C90.5924 35.2542 90.4313 35.2256 90.3096 35.1826V33.3135C90.4242 33.3493 90.5423 33.3779 90.6641 33.3994C90.7858 33.4137 90.9505 33.4209 91.1582 33.4209C91.6237 33.4209 91.9567 33.2132 92.1572 32.7979C92.3649 32.3825 92.4938 31.627 92.5439 30.5312L92.8125 25.1172H101.976V35H99.7734V26.8252H94.6709Z" fill="#5F5F5F"/>
<path d="M76.8926 32.0244C76.8926 31.0505 77.2578 30.3021 77.9883 29.7793C78.7188 29.2565 79.8538 29.0023 81.3936 29.0166L86.0234 29.0703V28.0068C86.0234 27.4482 85.8014 27.0221 85.3574 26.7285C84.9134 26.4277 84.1077 26.2773 82.9404 26.2773C81.8734 26.2773 81.0999 26.4277 80.6201 26.7285C80.1403 27.0221 79.9004 27.4232 79.9004 27.9316V28.2539L77.8594 28.2432V27.8242C77.8594 26.9863 78.3105 26.2666 79.2129 25.665C80.1152 25.0635 81.4079 24.7627 83.0908 24.7627C84.874 24.7627 86.1738 25.0348 86.9902 25.5791C87.8138 26.1234 88.2256 27.0365 88.2256 28.3184V32.54C88.2256 32.984 88.2578 33.4102 88.3223 33.8184C88.3867 34.2194 88.4906 34.5596 88.6338 34.8389V35H86.4424C86.335 34.8138 86.2454 34.5882 86.1738 34.3232C86.1094 34.0583 86.0592 33.7145 86.0234 33.292C85.7012 33.779 85.1318 34.2087 84.3154 34.5811C83.5062 34.9535 82.4499 35.1396 81.1465 35.1396C79.75 35.1396 78.6901 34.8604 77.9668 34.3018C77.2507 33.7432 76.8926 32.984 76.8926 32.0244ZM79.0732 31.9277C79.0732 32.4863 79.2809 32.9303 79.6963 33.2598C80.1188 33.5892 80.8099 33.7539 81.7695 33.7539C82.8366 33.7539 83.8105 33.514 84.6914 33.0342C85.5794 32.5544 86.0234 31.9134 86.0234 31.1113V30.3594L82.0273 30.3271C80.9603 30.32 80.2012 30.4417 79.75 30.6924C79.2988 30.9359 79.0732 31.3477 79.0732 31.9277Z" fill="#5F5F5F"/>
<path d="M63.6045 35V25.1172H65.8066V31.5303C65.8066 31.7809 65.8031 31.9564 65.7959 32.0566C65.7887 32.1497 65.7816 32.3288 65.7744 32.5938H65.8389C65.9964 32.3861 66.1146 32.2357 66.1934 32.1426C66.2793 32.0423 66.444 31.8633 66.6875 31.6055L72.3486 25.1172H74.5938V35H72.3916V28.5547C72.3916 28.3398 72.3916 28.1787 72.3916 28.0713C72.3988 27.9639 72.4059 27.7777 72.4131 27.5127H72.3594C72.1947 27.7275 72.0729 27.8779 71.9941 27.9639C71.9154 28.0498 71.7542 28.2217 71.5107 28.4795L65.8496 35H63.6045Z" fill="#5F5F5F"/>
<path d="M59.4795 37.8252V35H48.9092V25.1172H51.1006V33.292H57.4277V25.1172H59.6191V33.292H61.5742V37.8252H59.4795Z" fill="#5F5F5F"/>
<path d="M34.3213 35V25.1172H36.5234V31.5303C36.5234 31.7809 36.5199 31.9564 36.5127 32.0566C36.5055 32.1497 36.4984 32.3288 36.4912 32.5938H36.5557C36.7132 32.3861 36.8314 32.2357 36.9102 32.1426C36.9961 32.0423 37.1608 31.8633 37.4043 31.6055L43.0654 25.1172H45.3105V35H43.1084V28.5547C43.1084 28.3398 43.1084 28.1787 43.1084 28.0713C43.1156 27.9639 43.1227 27.7777 43.1299 27.5127H43.0762C42.9115 27.7275 42.7897 27.8779 42.7109 27.9639C42.6322 28.0498 42.471 28.2217 42.2275 28.4795L36.5664 35H34.3213Z" fill="#5F5F5F"/>
<path d="M17.7568 30.0908C17.7568 31.2008 18.1257 32.0602 18.8633 32.6689C19.6009 33.2777 20.7933 33.5928 22.4404 33.6143V26.4707C20.779 26.4922 19.583 26.8145 18.8525 27.4375C18.1221 28.0534 17.7568 28.9092 17.7568 30.0049V30.0908ZM29.4121 29.9941C29.4121 28.8984 29.0469 28.0426 28.3164 27.4268C27.5931 26.8109 26.3971 26.4922 24.7285 26.4707V33.6143C26.3971 33.5928 27.5931 33.2777 28.3164 32.6689C29.0469 32.0531 29.4121 31.1829 29.4121 30.0586V29.9941ZM22.4512 35.2578C20.2383 35.2148 18.5267 34.7458 17.3164 33.8506C16.1061 32.9554 15.501 31.6986 15.501 30.0801V29.9512C15.501 28.3828 16.1061 27.151 17.3164 26.2559C18.5267 25.3535 20.2383 24.8809 22.4512 24.8379V19.3057H24.707V24.8379C26.9557 24.8809 28.6816 25.3535 29.8848 26.2559C31.0879 27.151 31.6895 28.39 31.6895 29.9727V30.1016C31.6895 31.7057 31.0879 32.9554 29.8848 33.8506C28.6816 34.7458 26.9557 35.2148 24.707 35.2578V39.6406H22.4512V35.2578Z" fill="#5F5F5F"/>
<path d="M0.827148 30.0693V29.9404C0.827148 28.3936 1.41797 27.1439 2.59961 26.1914C3.78841 25.2389 5.36751 24.7627 7.33691 24.7627C9.32064 24.7627 10.8997 25.2389 12.0742 26.1914C13.2559 27.1439 13.8467 28.3936 13.8467 29.9404V30.0693C13.8467 31.6807 13.2559 32.959 12.0742 33.9043C10.8997 34.8496 9.32064 35.3223 7.33691 35.3223C5.36035 35.3223 3.78125 34.8496 2.59961 33.9043C1.41797 32.959 0.827148 31.6807 0.827148 30.0693ZM3.06152 29.9512V30.1338C3.06152 31.1865 3.42318 32.0387 4.14648 32.6904C4.87695 33.3421 5.94043 33.668 7.33691 33.668C8.74772 33.668 9.8112 33.3421 10.5273 32.6904C11.2435 32.0316 11.6016 31.1758 11.6016 30.123V29.9512C11.6016 28.9128 11.2435 28.0713 10.5273 27.4268C9.8112 26.7822 8.74772 26.46 7.33691 26.46C5.94043 26.46 4.87695 26.7822 4.14648 27.4268C3.42318 28.0713 3.06152 28.9128 3.06152 29.9512Z" fill="#5F5F5F"/>
</svg>
